<?xml version="1.0" encoding="UTF-8" standalone="no"?>
<!-- Created with Inkscape (http://www.inkscape.org/) -->

<svg
   xmlns:dc="http://purl.org/dc/elements/1.1/"
   xmlns:cc="http://creativecommons.org/ns#"
   xmlns:rdf="http://www.w3.org/1999/02/22-rdf-syntax-ns#"
   xmlns:svg="http://www.w3.org/2000/svg"
   xmlns="http://www.w3.org/2000/svg"
   xmlns:sodipodi="http://sodipodi.sourceforge.net/DTD/sodipodi-0.dtd"
   xmlns:inkscape="http://www.inkscape.org/namespaces/inkscape"
   version="1.1"
   id="svg2"
   xml:space="preserve"
   width="614.66669"
   height="250"
   viewBox="0 0 614.66669 250"
   sodipodi:docname="Jsonar_Simplifying Security Logo.svg"
   inkscape:version="0.92.2 (5c3e80d, 2017-08-06)"><metadata
     id="metadata8"><rdf:RDF><cc:Work
         rdf:about=""><dc:format>image/svg+xml</dc:format><dc:type
           rdf:resource="http://purl.org/dc/dcmitype/StillImage" /><dc:title></dc:title></cc:Work></rdf:RDF></metadata><defs
     id="defs6" /><sodipodi:namedview
     pagecolor="#ffffff"
     bordercolor="#666666"
     borderopacity="1"
     objecttolerance="10"
     gridtolerance="10"
     guidetolerance="10"
     inkscape:pageopacity="0"
     inkscape:pageshadow="2"
     inkscape:window-width="1164"
     inkscape:window-height="567"
     id="namedview4"
     showgrid="false"
     inkscape:zoom="0.57754879"
     inkscape:cx="307.33334"
     inkscape:cy="125"
     inkscape:window-x="0"
     inkscape:window-y="28"
     inkscape:window-maximized="0"
     inkscape:current-layer="g10" /><g
     id="g10"
     inkscape:groupmode="layer"
     inkscape:label="ink_ext_XXXXXX"
     transform="matrix(1.3333333,0,0,-1.3333333,0,250)"><g
       id="g12"
       transform="scale(0.1)"><path
         d="m 706.578,1034.84 h 27.031 V 665.961 c 0,-34.981 -4.656,-186.582 -13.914,-211.481 -9.281,-24.921 -21.867,-45.582 -37.757,-62.011 -30.75,-29.688 -68.653,-44.52 -113.692,-44.52 -38.156,0 -71.027,9.801 -98.578,29.422 -27.574,19.598 -49.043,46.109 -64.398,79.5 l 23.046,12.719 c 14.321,-31.281 33.262,-55.25 56.852,-71.949 23.578,-16.692 51.801,-25.039 84.672,-25.039 19.066,0 36.957,3.437 53.656,10.328 16.699,6.879 31.133,17.351 43.328,31.41 12.196,14.031 21.864,31.531 29.02,52.469 7.152,20.921 10.734,167.351 10.734,195.972"
         style="fill:#15213c;fill-opacity:1;fill-rule:nonzero;stroke:none"
         id="path14"
         inkscape:connector-curvature="0" /><path
         d="m 588.559,1246.84 c 0,-70.5 57.148,-127.65 127.664,-127.65 70.488,0 127.648,57.15 127.648,127.65 0,70.5 -57.16,127.66 -127.648,127.66 -70.516,0 -127.664,-57.16 -127.664,-127.66"
         style="fill:#526392;fill-opacity:1;fill-rule:nonzero;stroke:none"
         id="path16"
         inkscape:connector-curvature="0" /><path
         d="m 711.973,1503.35 c -139.879,0 -253.282,-113.4 -253.282,-253.28"
         style="fill:none;stroke:#526392;stroke-width:20;stroke-linecap:butt;stroke-linejoin:miter;stroke-miterlimit:10;stroke-dasharray:none;stroke-opacity:1"
         id="path18"
         inkscape:connector-curvature="0" /><path
         d="m 707.105,1620.2 c -198.371,0 -359.179,-160.81 -359.179,-359.18"
         style="fill:none;stroke:#526392;stroke-width:15;stroke-linecap:butt;stroke-linejoin:miter;stroke-miterlimit:10;stroke-dasharray:none;stroke-opacity:1"
         id="path20"
         inkscape:connector-curvature="0" /><path
         d="m 711.973,1736.14 c -262.399,0 -475.118,-212.72 -475.118,-475.12"
         style="fill:none;stroke:#526392;stroke-width:10;stroke-linecap:butt;stroke-linejoin:miter;stroke-miterlimit:10;stroke-dasharray:none;stroke-opacity:1"
         id="path22"
         inkscape:connector-curvature="0" /><path
         d="m 1185.22,758.691 c -48.73,0 -93.44,8.469 -134.15,25.411 -40.7,16.937 -78.875,41.726 -114.539,74.429 l 20.516,22.27 c 33.266,-31.5 68.463,-55.121 105.623,-70.86 37.12,-15.75 78.58,-23.609 124.35,-23.609 26.73,0 51.09,3.398 73.09,10.238 21.97,6.828 40.85,16.489 56.59,28.969 15.74,12.481 27.77,27.031 36.1,43.68 8.31,16.633 12.48,34.765 12.48,54.375 v 1.777 c 0,18.418 -2.98,34.77 -8.91,49.027 -5.95,14.262 -16.2,27.032 -30.75,38.332 -14.57,11.28 -34.33,21.53 -59.29,30.75 -24.94,9.2 -56.14,17.67 -93.59,25.4 -38.03,7.72 -70.57,16.64 -97.59,26.74 -27.05,10.1 -49.04,21.84 -65.97,35.21 -16.934,13.37 -29.274,28.82 -36.985,46.35 -7.73,17.53 -11.59,37.57 -11.59,60.17 v 1.78 c 0,21.98 5.04,42.79 15.161,62.4 10.089,19.61 24.058,36.83 41.894,51.69 17.81,14.85 39.05,26.44 63.73,34.76 24.65,8.32 51.83,12.49 81.54,12.49 42.79,0 81.43,-6.4 115.88,-19.17 34.47,-12.78 66.56,-30.75 96.27,-53.92 l -18.71,-24.07 c -58.24,46.35 -123.31,69.53 -195.2,69.53 -25.56,0 -48.89,-3.57 -69.98,-10.7 -21.11,-7.13 -39.09,-16.8 -53.92,-28.97 -14.86,-12.19 -26.3,-26.15 -34.33,-41.9 -8.022,-15.74 -12.038,-32.23 -12.038,-49.46 v -1.79 c 0,-17.83 2.977,-33.87 8.922,-48.13 5.936,-14.26 16.186,-27.18 30.756,-38.78 14.55,-11.58 34.31,-21.98 59.26,-31.19 24.96,-9.23 56.45,-17.69 94.5,-25.41 38.61,-7.73 71.45,-16.79 98.49,-27.18 27.03,-10.41 48.86,-22.44 65.51,-36.1 16.64,-13.68 28.67,-29.12 36.1,-46.351 7.44,-17.238 11.15,-36.859 11.15,-58.832 v -1.785 c 0,-24.367 -5.05,-46.653 -15.16,-66.84 -10.1,-20.223 -24.21,-37.891 -42.33,-53.043 -18.13,-15.16 -40.12,-26.899 -65.98,-35.207 -25.84,-8.32 -54.81,-12.481 -86.9,-12.481"
         style="fill:#15213c;fill-opacity:1;fill-rule:nonzero;stroke:none"
         id="path24"
         inkscape:connector-curvature="0" /><path
         d="m 1833.24,784.539 c 41.72,0 79.73,7.871 114.01,23.621 34.27,15.738 63.64,36.988 88.07,63.731 24.44,26.742 43.53,57.945 57.24,93.589 13.69,35.66 20.57,73.09 20.57,112.32 v 1.78 c 0,39.21 -6.88,76.66 -20.57,112.31 -13.71,35.65 -32.95,66.99 -57.68,94.04 -24.74,27.03 -54.4,48.58 -88.97,64.62 -34.58,16.05 -72.73,24.07 -114.45,24.07 -41.73,0 -79.89,-7.89 -114.46,-23.62 -34.58,-15.76 -64.09,-36.99 -88.54,-63.73 -24.44,-26.75 -43.52,-57.94 -57.22,-93.59 -13.71,-35.66 -20.56,-73.1 -20.56,-112.32 v -1.78 c 0,-39.22 6.85,-76.66 20.56,-112.31 13.7,-35.649 33.07,-67.004 58.11,-94.04 25.03,-27.05 54.85,-48.582 89.43,-64.621 34.56,-16.05 72.73,-24.07 114.46,-24.07 m -1.78,-27.641 c -47.56,0 -90.34,8.782 -128.36,26.301 -38.03,17.52 -70.73,41.153 -98.05,70.871 -27.34,29.7 -48.28,63.86 -62.84,102.5 -14.57,38.621 -21.84,79.33 -21.84,122.12 v 1.78 c 0,42.79 7.43,83.48 22.28,122.11 14.85,38.63 35.8,72.79 62.85,102.51 27.03,29.71 59.71,53.33 98.04,70.87 38.34,17.52 81.25,26.29 128.81,26.29 46.93,0 89.58,-8.77 127.91,-26.29 38.33,-17.54 71.14,-41.16 98.49,-70.87 27.31,-29.72 48.26,-63.88 62.83,-102.51 14.57,-38.63 21.85,-79.32 21.85,-122.11 1.18,0 1.18,-0.59 0,-1.78 0,-42.79 -7.45,-83.499 -22.29,-122.12 -14.86,-38.64 -35.81,-72.8 -62.84,-102.5 -27.05,-29.718 -59.87,-53.351 -98.5,-70.871 -38.62,-17.519 -81.41,-26.301 -128.34,-26.301"
         style="fill:#526392;fill-opacity:1;fill-rule:nonzero;stroke:none"
         id="path26"
         inkscape:connector-curvature="0" /><path
         d="m 2301.17,1391.55 h 27.58 L 2784.3,819.309 v 572.241 h 30.29 V 767.609 h -24.01 L 2331.47,1344.31 V 767.609 h -30.3 v 623.941"
         style="fill:#15213c;fill-opacity:1;fill-rule:nonzero;stroke:none"
         id="path28"
         inkscape:connector-curvature="0" /><path
         d="M 3432.3,977.074 3252.26,1360.36 3073.1,977.074 Z m -193.41,418.946 h 28.51 l 295.94,-628.411 h -32.98 l -84.69,181.832 h -385.95 l -85.57,-181.832 h -31.19 l 295.93,628.411"
         style="fill:#15213c;fill-opacity:1;fill-rule:nonzero;stroke:none"
         id="path30"
         inkscape:connector-curvature="0" /><path
         d="m 3941.27,1061.75 c 32.09,0 60.61,3.71 85.57,11.14 24.96,7.42 46.03,17.83 63.29,31.2 17.21,13.37 30.3,29.27 39.21,47.68 8.91,18.43 13.38,38.64 13.38,60.61 v 1.8 c 0,46.93 -17.09,83.62 -51.26,110.07 -34.18,26.44 -82.16,39.67 -143.96,39.67 h -225.51 v -302.17 z m -249.58,329.8 h 257.6 c 39.8,0 74.72,-5.21 104.72,-15.6 30.01,-10.4 54.53,-25.11 73.54,-44.12 14.28,-14.86 25.41,-32.09 33.44,-51.7 8.01,-19.61 12.03,-41 12.03,-64.18 v -1.77 c 0,-26.17 -4.77,-49.63 -14.26,-70.41 -9.51,-20.82 -23.04,-38.65 -40.56,-53.49 -17.53,-14.87 -38.33,-26.74 -62.4,-35.65 -24.06,-8.93 -50.36,-14.58 -78.88,-16.95 L 4184.6,767.609 h -38.33 L 3943.06,1034.12 H 3721.99 V 767.609 h -30.3 v 623.941"
         style="fill:#15213c;fill-opacity:1;fill-rule:nonzero;stroke:none"
         id="path32"
         inkscape:connector-curvature="0" /><path
         d="m 635.234,1246.84 c 0,-44.72 36.25,-80.98 80.981,-80.98 44.719,0 80.976,36.26 80.976,80.98 0,44.73 -36.257,80.98 -80.976,80.98 -44.731,0 -80.981,-36.25 -80.981,-80.98"
         style="fill:#15213c;fill-opacity:1;fill-rule:nonzero;stroke:none"
         id="path34"
         inkscape:connector-curvature="0" /><path
         d="m 635.234,1246.84 c 0,-44.72 36.25,-80.98 80.981,-80.98 44.719,0 80.976,36.26 80.976,80.98 0,44.73 -36.257,80.98 -80.976,80.98 -44.731,0 -80.981,-36.25 -80.981,-80.98 z"
         style="fill:none;stroke:#ffffff;stroke-width:20;stroke-linecap:butt;stroke-linejoin:miter;stroke-miterlimit:10;stroke-dasharray:none;stroke-opacity:1"
         id="path36"
         inkscape:connector-curvature="0" /><path
         d="m 1029.84,368.699 c -17.03,0 -33.742,2.93 -50.133,8.789 -16.394,5.852 -31.293,14.844 -44.707,26.981 l 29.059,34.812 c 10.218,-8.301 20.707,-14.91 31.453,-19.801 10.748,-4.91 22.518,-7.339 35.288,-7.339 10.22,0 18.15,1.847 23.79,5.57 5.64,3.738 8.46,8.898 8.46,15.488 v 0.653 c 0,3.187 -0.58,6.007 -1.76,8.457 -1.17,2.453 -3.41,4.73 -6.72,6.871 -3.31,2.129 -7.9,4.25 -13.77,6.39 -5.87,2.129 -13.5,4.352 -22.89,6.711 -11.32,2.758 -21.562,5.84 -30.742,9.25 -9.18,3.399 -16.973,7.61 -23.375,12.617 -6.406,5 -11.367,11.223 -14.887,18.684 -3.523,7.449 -5.285,16.699 -5.285,27.789 v 0.629 c 0,10.211 1.902,19.422 5.703,27.629 3.813,8.191 9.153,15.262 16.028,21.23 6.878,5.95 15.082,10.539 24.628,13.731 9.54,3.191 20.06,4.789 31.56,4.789 16.39,0 31.46,-2.449 45.19,-7.34 13.73,-4.898 26.35,-11.918 37.85,-21.078 l -25.56,-37.051 c -10.01,6.82 -19.79,12.192 -29.38,16.129 -9.58,3.941 -19.16,5.91 -28.74,5.91 -9.58,0 -16.76,-1.871 -21.552,-5.578 -4.793,-3.742 -7.184,-8.371 -7.184,-13.902 v -0.641 c 0,-3.617 0.691,-6.758 2.078,-9.43 1.387,-2.648 3.895,-5.046 7.528,-7.168 3.63,-2.14 8.59,-4.152 14.89,-6.07 6.29,-1.91 14.24,-4.16 23.85,-6.711 11.31,-2.98 21.4,-6.328 30.26,-10.058 8.86,-3.731 16.32,-8.2 22.41,-13.403 6.09,-5.226 10.68,-11.347 13.77,-18.367 3.09,-7.031 4.65,-15.441 4.65,-25.23 V 438 c 0,-11.078 -2.02,-20.922 -6.03,-29.531 -4.02,-8.637 -9.63,-15.867 -16.82,-21.719 -7.19,-5.859 -15.78,-10.328 -25.75,-13.422 -9.97,-3.09 -21.02,-4.629 -33.16,-4.629"
         style="fill:#526392;fill-opacity:1;fill-rule:nonzero;stroke:none"
         id="path38"
         inkscape:connector-curvature="0" /><path
         d="m 1151.51,543.07 h 48.54 V 371.891 h -48.54 z m -1.27,61.95 h 51.09 v -43.11 h -51.09 v 43.11"
         style="fill:#526392;fill-opacity:1;fill-rule:nonzero;stroke:none"
         id="path40"
         inkscape:connector-curvature="0" /><path
         d="m 1245.72,543.07 h 48.54 v -24.48 c 2.76,3.648 5.8,7.129 9.1,10.461 3.3,3.32 6.97,6.269 11.02,8.84 4.04,2.578 8.56,4.609 13.57,6.109 5,1.512 10.59,2.262 16.77,2.262 11.28,0 21.02,-2.364 29.22,-7.082 8.19,-4.719 14.53,-11.469 19,-20.258 7.45,9 15.75,15.808 24.9,20.43 9.16,4.609 19.59,6.91 31.3,6.91 18.1,0 32.26,-5.321 42.48,-15.973 10.22,-10.641 15.32,-26.289 15.32,-46.949 V 371.891 h -48.54 v 95.257 c 0,11.461 -2.45,20.133 -7.34,25.973 -4.9,5.828 -11.92,8.75 -21.08,8.75 -9.15,0 -16.34,-2.922 -21.56,-8.75 -5.21,-5.84 -7.82,-14.512 -7.82,-25.973 v -95.257 h -48.53 v 95.257 c 0,11.461 -2.46,20.133 -7.35,25.973 -4.9,5.828 -11.93,8.75 -21.08,8.75 -9.15,0 -16.35,-2.922 -21.56,-8.75 -5.21,-5.84 -7.82,-14.512 -7.82,-25.973 v -95.257 h -48.54 V 543.07"
         style="fill:#526392;fill-opacity:1;fill-rule:nonzero;stroke:none"
         id="path42"
         inkscape:connector-curvature="0" /><path
         d="m 1638.51,409.891 c 5.75,0 11.12,1.129 16.13,3.359 5,2.238 9.42,5.43 13.25,9.582 3.83,4.148 6.87,9.098 9.1,14.848 2.24,5.75 3.36,12.242 3.36,19.492 v 0.629 c 0,7.031 -1.12,13.469 -3.36,19.32 -2.23,5.848 -5.27,10.859 -9.1,15.008 -3.83,4.16 -8.25,7.351 -13.25,9.582 -5.01,2.25 -10.38,3.348 -16.13,3.348 -5.75,0 -11.13,-1.098 -16.12,-3.348 -5.01,-2.231 -9.37,-5.422 -13.1,-9.582 -3.73,-4.149 -6.71,-9.16 -8.94,-15.008 -2.23,-5.851 -3.35,-12.289 -3.35,-19.32 v -0.629 c 0,-7.031 1.12,-13.481 3.35,-19.332 2.23,-5.852 5.21,-10.86 8.94,-15.008 3.73,-4.152 8.09,-7.344 13.1,-9.582 4.99,-2.23 10.37,-3.359 16.12,-3.359 z M 1549.1,543.07 h 48.54 v -24.59 c 5.95,8.079 13.14,14.731 21.55,19.961 8.41,5.207 19,7.821 31.78,7.821 10,0 19.68,-1.922 29.05,-5.75 9.37,-3.832 17.68,-9.524 24.92,-17.082 7.23,-7.559 13.03,-16.828 17.4,-27.789 4.36,-10.961 6.55,-23.582 6.55,-37.84 v -0.629 c 0,-14.274 -2.19,-26.891 -6.55,-37.844 -4.37,-10.969 -10.12,-20.238 -17.25,-27.789 -7.13,-7.57 -15.38,-13.258 -24.74,-17.09 -9.37,-3.828 -19.16,-5.75 -29.38,-5.75 -12.99,0 -23.69,2.563 -32.1,7.672 -8.41,5.098 -15.49,11.059 -21.23,17.891 V 320.801 H 1549.1 V 543.07"
         style="fill:#526392;fill-opacity:1;fill-rule:nonzero;stroke:none"
         id="path44"
         inkscape:connector-curvature="0" /><path
         d="m 1766.88,371.891 h 48.543 V 605.02 h -48.543 z"
         style="fill:#526392;fill-opacity:1;fill-rule:nonzero;stroke:none"
         id="path46"
         inkscape:connector-curvature="0" /><path
         d="m 1863.33,543.07 h 48.54 V 371.891 h -48.54 z m -1.28,61.95 h 51.09 v -43.11 h -51.09 v 43.11"
         style="fill:#526392;fill-opacity:1;fill-rule:nonzero;stroke:none"
         id="path48"
         inkscape:connector-curvature="0" /><path
         d="m 1965.83,501.551 h -20.12 v 39.91 h 20.12 v 10.859 c 0,18.532 4.58,32.371 13.73,41.52 8.94,8.941 22.04,13.41 39.28,13.41 7.66,0 14.21,-0.422 19.64,-1.27 5.43,-0.851 10.38,-2.031 14.85,-3.519 V 562.23 c -3.62,1.282 -7.13,2.282 -10.54,3.032 -3.41,0.75 -7.24,1.117 -11.5,1.117 -11.71,0 -17.56,-6.18 -17.56,-18.52 v -6.718 h 39.28 v -39.59 h -38.64 v -129.66 h -48.54 v 129.66"
         style="fill:#526392;fill-opacity:1;fill-rule:nonzero;stroke:none"
         id="path50"
         inkscape:connector-curvature="0" /><path
         d="m 2120.39,319.84 c -8.94,0 -16.83,1.082 -23.64,3.199 -6.81,2.133 -13.3,5 -19.47,8.621 l 16.28,35.129 c 3.19,-1.918 6.65,-3.508 10.38,-4.789 3.72,-1.281 7.19,-1.91 10.38,-1.91 4.25,0 7.61,0.789 10.06,2.379 2.45,1.601 4.74,4.531 6.87,8.793 l -67.07,171.808 h 51.42 l 38.96,-116.57 37.36,116.57 h 50.46 l -65.79,-175.32 c -3.19,-8.738 -6.6,-16.141 -10.22,-22.199 -3.62,-6.063 -7.62,-11.02 -11.97,-14.852 -4.37,-3.828 -9.32,-6.59 -14.85,-8.301 -5.54,-1.699 -11.93,-2.558 -19.16,-2.558"
         style="fill:#526392;fill-opacity:1;fill-rule:nonzero;stroke:none"
         id="path52"
         inkscape:connector-curvature="0" /><path
         d="m 2273.35,543.07 h 48.54 V 371.891 h -48.54 z m -1.27,61.95 h 51.09 v -43.11 h -51.09 v 43.11"
         style="fill:#526392;fill-opacity:1;fill-rule:nonzero;stroke:none"
         id="path54"
         inkscape:connector-curvature="0" /><path
         d="m 2367.56,543.07 h 48.53 v -24.48 c 2.78,3.648 5.8,7.129 9.12,10.461 3.29,3.32 6.96,6.269 11.01,8.84 4.03,2.578 8.51,4.609 13.41,6.109 4.9,1.512 10.43,2.262 16.6,2.262 18.53,0 32.84,-5.641 42.95,-16.922 10.12,-11.289 15.18,-26.828 15.18,-46.629 v -110.82 h -48.55 v 95.257 c 0,11.461 -2.55,20.133 -7.67,25.973 -5.1,5.828 -12.34,8.75 -21.7,8.75 -9.38,0 -16.77,-2.922 -22.2,-8.75 -5.42,-5.84 -8.15,-14.512 -8.15,-25.973 v -95.257 h -48.53 V 543.07"
         style="fill:#526392;fill-opacity:1;fill-rule:nonzero;stroke:none"
         id="path56"
         inkscape:connector-curvature="0" /><path
         d="m 2648.9,426.191 c 5.94,0 11.49,0.95 16.6,2.868 5.12,1.921 9.52,4.632 13.26,8.152 3.71,3.5 6.64,7.711 8.77,12.598 2.14,4.902 3.19,10.222 3.19,15.972 v 0.649 c 0,5.742 -1.05,11.058 -3.19,15.961 -2.13,4.898 -5.06,9.097 -8.77,12.621 -3.74,3.508 -8.14,6.218 -13.26,8.129 -5.11,1.918 -10.66,2.89 -16.6,2.89 -5.97,0 -11.46,-0.972 -16.46,-2.89 -5,-1.911 -9.36,-4.621 -13.08,-8.129 -3.73,-3.524 -6.65,-7.723 -8.79,-12.621 -2.12,-4.903 -3.2,-10.219 -3.2,-15.961 v -0.649 c 0,-11.91 3.95,-21.5 11.83,-28.742 7.87,-7.238 17.76,-10.848 29.7,-10.848 z m -5.76,-106.031 c -14.05,0 -27.47,1.551 -40.24,4.629 -12.76,3.09 -24.58,7.5 -35.44,13.262 l 16.6,36.398 c 8.95,-4.89 17.94,-8.73 26.98,-11.488 9.06,-2.762 19.33,-4.152 30.83,-4.152 16.61,0 28.9,3.929 36.89,11.812 7.98,7.867 11.96,19.481 11.96,34.809 v 8.3 c -7.23,-8.73 -15.1,-15.55 -23.63,-20.441 -8.51,-4.891 -19.27,-7.34 -32.25,-7.34 -10.01,0 -19.59,1.762 -28.75,5.27 -9.15,3.519 -17.23,8.672 -24.25,15.48 -7.04,6.821 -12.62,15.172 -16.77,25.071 -4.16,9.91 -6.23,21.242 -6.23,34.011 v 0.649 c 0,12.769 2.13,24.109 6.38,34 4.26,9.902 9.91,18.25 16.93,25.07 7.03,6.809 15.12,11.98 24.28,15.488 9.14,3.512 18.61,5.274 28.41,5.274 13.2,0 24.06,-2.453 32.57,-7.34 8.52,-4.91 16.08,-10.973 22.68,-18.211 v 22.359 h 48.54 V 410.539 c 0,-30.449 -7.24,-52.898 -21.72,-67.391 -8.09,-8.078 -18.26,-13.929 -30.49,-17.546 -12.25,-3.633 -26.66,-5.442 -43.28,-5.442"
         style="fill:#526392;fill-opacity:1;fill-rule:nonzero;stroke:none"
         id="path58"
         inkscape:connector-curvature="0" /><path
         d="m 2962.8,368.699 c -17.03,0 -33.75,2.93 -50.13,8.789 -16.4,5.852 -31.3,14.844 -44.72,26.981 l 29.07,34.812 c 10.23,-8.301 20.69,-14.91 31.46,-19.801 10.74,-4.91 22.52,-7.339 35.29,-7.339 10.2,0 18.13,1.847 23.79,5.57 5.62,3.738 8.46,8.898 8.46,15.488 v 0.653 c 0,3.187 -0.59,6.007 -1.77,8.457 -1.17,2.453 -3.41,4.73 -6.72,6.871 -3.31,2.129 -7.9,4.25 -13.77,6.39 -5.88,2.129 -13.51,4.352 -22.9,6.711 -11.31,2.758 -21.55,5.84 -30.73,9.25 -9.18,3.399 -16.98,7.61 -23.37,12.617 -6.41,5 -11.37,11.223 -14.89,18.684 -3.53,7.449 -5.29,16.699 -5.29,27.789 v 0.629 c 0,10.211 1.9,19.422 5.71,27.629 3.8,8.191 9.14,15.262 16.02,21.23 6.88,5.95 15.08,10.539 24.63,13.731 9.54,3.191 20.06,4.789 31.56,4.789 16.39,0 31.46,-2.449 45.19,-7.34 13.73,-4.898 26.34,-11.918 37.84,-21.078 l -25.55,-37.051 c -10.01,6.82 -19.79,12.192 -29.37,16.129 -9.58,3.941 -19.17,5.91 -28.75,5.91 -9.58,0 -16.76,-1.871 -21.55,-5.578 -4.79,-3.742 -7.19,-8.371 -7.19,-13.902 v -0.641 c 0,-3.617 0.69,-6.758 2.08,-9.43 1.38,-2.648 3.89,-5.046 7.53,-7.168 3.62,-2.14 8.59,-4.152 14.89,-6.07 6.3,-1.91 14.25,-4.16 23.86,-6.711 11.31,-2.98 21.39,-6.328 30.25,-10.058 8.86,-3.731 16.33,-8.2 22.41,-13.403 6.09,-5.226 10.68,-11.347 13.77,-18.367 3.09,-7.031 4.64,-15.441 4.64,-25.23 V 438 c 0,-11.078 -2,-20.922 -6.02,-29.531 -4.02,-8.637 -9.63,-15.867 -16.81,-21.719 -7.2,-5.859 -15.78,-10.328 -25.75,-13.422 -9.97,-3.09 -21.03,-4.629 -33.17,-4.629"
         style="fill:#526392;fill-opacity:1;fill-rule:nonzero;stroke:none"
         id="path60"
         inkscape:connector-curvature="0" /><path
         d="m 3194.65,470.891 c -1.5,10.859 -5.32,19.648 -11.5,26.347 -6.18,6.723 -14.36,10.063 -24.59,10.063 -10.22,0 -18.47,-3.301 -24.75,-9.91 -6.28,-6.59 -10.37,-15.442 -12.3,-26.5 z m -31.3,-102.821 c -12.77,0 -24.65,2.129 -35.61,6.379 -10.96,4.262 -20.44,10.332 -28.42,18.199 -7.98,7.891 -14.21,17.192 -18.69,27.954 -4.47,10.75 -6.69,22.718 -6.69,35.918 v 0.652 c 0,12.129 2.07,23.629 6.23,34.476 4.15,10.864 9.94,20.332 17.4,28.43 7.45,8.082 16.34,14.473 26.66,19.152 10.33,4.692 21.77,7.032 34.33,7.032 14.26,0 26.62,-2.563 37.05,-7.672 10.43,-5.102 19.11,-11.969 26.02,-20.602 6.92,-8.617 12.03,-18.508 15.33,-29.687 3.29,-11.18 4.94,-22.832 4.94,-34.973 0,-1.906 -0.04,-3.937 -0.15,-6.066 -0.11,-2.133 -0.27,-4.364 -0.48,-6.703 h -119.11 c 2.33,-11.079 7.18,-19.43 14.53,-25.071 7.34,-5.648 16.44,-8.457 27.29,-8.457 8.1,0 15.34,1.379 21.72,4.141 6.39,2.769 12.99,7.238 19.81,13.418 L 3233.29,400 c -8.09,-10.012 -17.89,-17.828 -29.38,-23.48 -11.5,-5.629 -25.02,-8.45 -40.56,-8.45"
         style="fill:#526392;fill-opacity:1;fill-rule:nonzero;stroke:none"
         id="path62"
         inkscape:connector-curvature="0" /><path
         d="m 3358.79,368.07 c -12.77,0 -24.65,2.34 -35.62,7.02 -10.96,4.68 -20.39,11.012 -28.26,19 -7.88,7.98 -14.05,17.351 -18.52,28.101 -4.48,10.75 -6.7,22.2 -6.7,34.329 v 0.652 c 0,12.129 2.22,23.629 6.7,34.476 4.47,10.864 10.64,20.332 18.52,28.43 7.87,8.082 17.3,14.473 28.26,19.152 10.97,4.692 23.05,7.032 36.25,7.032 16.19,0 29.59,-2.563 40.24,-7.672 10.64,-5.102 20.01,-12.129 28.1,-21.07 l -29.69,-31.93 c -5.55,5.738 -11.23,10.32 -17.09,13.73 -5.86,3.399 -13.15,5.102 -21.88,5.102 -6.18,0 -11.76,-1.231 -16.77,-3.672 -5,-2.449 -9.37,-5.801 -13.08,-10.059 -3.73,-4.261 -6.6,-9.211 -8.63,-14.839 -2.03,-5.641 -3.03,-11.661 -3.03,-18.051 v -0.629 c 0,-6.613 1,-12.781 3.03,-18.531 2.03,-5.75 4.96,-10.75 8.78,-15.012 3.84,-4.258 8.4,-7.609 13.73,-10.059 5.32,-2.449 11.28,-3.679 17.89,-3.679 8.08,0 15.17,1.66 21.24,4.961 6.07,3.289 12.08,7.718 18.03,13.25 l 28.42,-28.731 c -8.29,-9.16 -17.77,-16.672 -28.42,-22.519 -10.63,-5.852 -24.47,-8.782 -41.5,-8.782"
         style="fill:#526392;fill-opacity:1;fill-rule:nonzero;stroke:none"
         id="path64"
         inkscape:connector-curvature="0" /><path
         d="m 3517.18,368.699 c -18.53,0 -32.84,5.653 -42.95,16.922 -10.12,11.277 -15.17,26.828 -15.17,46.641 V 543.07 h 48.54 v -95.25 c 0,-11.48 2.55,-20.129 7.66,-25.968 5.11,-5.84 12.36,-8.75 21.72,-8.75 9.37,0 16.76,2.91 22.2,8.75 5.42,5.839 8.13,14.488 8.13,25.968 v 95.25 h 48.55 V 371.891 h -48.55 v 24.48 c -2.76,-3.652 -5.8,-7.141 -9.1,-10.461 -3.3,-3.32 -6.97,-6.269 -11.01,-8.84 -4.05,-2.582 -8.52,-4.609 -13.41,-6.109 -4.9,-1.5 -10.44,-2.262 -16.61,-2.262"
         style="fill:#526392;fill-opacity:1;fill-rule:nonzero;stroke:none"
         id="path66"
         inkscape:connector-curvature="0" /><path
         d="m 3659.29,543.07 h 48.53 v -34.5 c 4.89,11.711 11.6,21.09 20.13,28.11 8.51,7.019 20,10.211 34.48,9.582 V 495.48 h -2.56 c -16.17,0 -28.9,-4.89 -38.15,-14.679 -9.26,-9.801 -13.9,-25.02 -13.9,-45.672 v -63.238 h -48.53 V 543.07"
         style="fill:#526392;fill-opacity:1;fill-rule:nonzero;stroke:none"
         id="path68"
         inkscape:connector-curvature="0" /><path
         d="m 3795,543.07 h 48.54 V 371.891 H 3795 Z m -1.28,61.95 h 51.1 v -43.11 h -51.1 v 43.11"
         style="fill:#526392;fill-opacity:1;fill-rule:nonzero;stroke:none"
         id="path70"
         inkscape:connector-curvature="0" /><path
         d="m 3947.01,369.02 c -7.45,0 -14.21,0.8 -20.28,2.402 -6.06,1.598 -11.28,4.418 -15.65,8.449 -4.35,4.059 -7.77,9.32 -10.21,15.809 -2.45,6.511 -3.67,14.75 -3.67,24.761 v 81.11 h -20.44 v 41.519 h 20.44 v 43.75 h 48.54 v -43.75 h 40.23 v -41.519 h -40.23 V 428.16 c 0,-11.109 5.21,-16.66 15.65,-16.66 8.5,0 16.49,2.121 23.94,6.391 V 378.93 c -5.11,-2.989 -10.75,-5.391 -16.92,-7.192 -6.18,-1.808 -13.3,-2.718 -21.4,-2.718"
         style="fill:#526392;fill-opacity:1;fill-rule:nonzero;stroke:none"
         id="path72"
         inkscape:connector-curvature="0" /><path
         d="m 4062.61,319.84 c -8.94,0 -16.82,1.082 -23.63,3.199 -6.81,2.133 -13.31,5 -19.48,8.621 l 16.29,35.129 c 3.19,-1.918 6.65,-3.508 10.38,-4.789 3.72,-1.281 7.18,-1.91 10.37,-1.91 4.26,0 7.61,0.789 10.07,2.379 2.43,1.601 4.74,4.531 6.86,8.793 l -67.06,171.808 h 51.41 l 38.97,-116.57 37.36,116.57 h 50.45 l -65.78,-175.32 c -3.19,-8.738 -6.6,-16.141 -10.22,-22.199 -3.63,-6.063 -7.61,-11.02 -11.98,-14.852 -4.36,-3.828 -9.32,-6.59 -14.85,-8.301 -5.53,-1.699 -11.92,-2.558 -19.16,-2.558"
         style="fill:#526392;fill-opacity:1;fill-rule:nonzero;stroke:none"
         id="path74"
         inkscape:connector-curvature="0" /></g></g></svg>